<?xml version="1.0" encoding="UTF-8" standalone="no"?>
<!-- Created with Inkscape (http://www.inkscape.org/) -->

<svg
   xmlns:dc="http://purl.org/dc/elements/1.1/"
   xmlns:cc="http://creativecommons.org/ns#"
   xmlns:rdf="http://www.w3.org/1999/02/22-rdf-syntax-ns#"
   xmlns:svg="http://www.w3.org/2000/svg"
   xmlns="http://www.w3.org/2000/svg"
   xmlns:sodipodi="http://sodipodi.sourceforge.net/DTD/sodipodi-0.dtd"
   xmlns:inkscape="http://www.inkscape.org/namespaces/inkscape"
   width="143mm"
   height="74mm"
   viewBox="0 0 143 74"
   version="1.1"
   id="svg8"
   inkscape:version="0.92.4 (5da689c313, 2019-01-14)"
   sodipodi:docname="under-pressure-logo-003.svg">
  <defs
     id="defs2" />
  <sodipodi:namedview
     id="base"
     pagecolor="#005ca9"
     bordercolor="#666666"
     borderopacity="1.0"
     inkscape:pageopacity="0"
     inkscape:pageshadow="2"
     inkscape:zoom="1.979899"
     inkscape:cx="330.3303"
     inkscape:cy="134.00035"
     inkscape:document-units="mm"
     inkscape:current-layer="layer1"
     showgrid="false"
     inkscape:window-width="1920"
     inkscape:window-height="1001"
     inkscape:window-x="-9"
     inkscape:window-y="-9"
     inkscape:window-maximized="1" />
  <metadata
     id="metadata5">
    <rdf:RDF>
      <cc:Work
         rdf:about="">
        <dc:format>image/svg+xml</dc:format>
        <dc:type
           rdf:resource="http://purl.org/dc/dcmitype/StillImage" />
        <dc:title></dc:title>
      </cc:Work>
    </rdf:RDF>
  </metadata>
  <g
     inkscape:label="Layer 1"
     inkscape:groupmode="layer"
     id="layer1"
     transform="translate(0,-223)">
    <g
       aria-label="Under Pressure Exterior Cleaning"
       transform="scale(0.98314689,1.017142)"
       style="font-style:normal;font-variant:normal;font-weight:normal;font-stretch:normal;font-size:7.70577478px;line-height:1.25;font-family:Gruppo;-inkscape-font-specification:Gruppo;letter-spacing:0px;word-spacing:0px;fill:#000000;fill-opacity:1;stroke:none;stroke-width:0.28896654"
       id="text847">
      <path
         d="m 6.1176428,287.54287 q 0,1.03847 -0.6321105,1.59157 -0.6321104,0.55309 -1.8624683,0.55309 -1.2303579,0 -1.8624683,-0.55309 -0.6283479,-0.5531 -0.6283479,-1.58781 v -3.57819 h 1.452349 v 3.49542 q 0,0.58319 0.2445665,0.86915 0.2445666,0.28595 0.7939007,0.28595 0.541809,0 0.7901381,-0.27466 0.2520916,-0.27467 0.2520916,-0.88044 v -3.49542 h 1.4523491 z"
         style="font-style:normal;font-variant:normal;font-weight:bold;font-stretch:normal;font-size:7.70572758px;font-family:sans-serif;-inkscape-font-specification:'sans-serif, Bold';font-variant-ligatures:normal;font-variant-caps:normal;font-variant-numeric:normal;font-feature-settings:normal;text-align:start;writing-mode:lr-tb;text-anchor:start;fill:#ffffff;stroke:none;stroke-width:0.28896654"
         id="path899" />
      <path
         d="m 11.641084,289.57089 h -1.362047 v -2.09574 q 0,-0.25586 -0.02634,-0.50795 -0.02634,-0.25586 -0.0903,-0.37626 -0.07525,-0.13921 -0.2219907,-0.20318 -0.1429774,-0.064 -0.4025942,-0.064 -0.1843656,0 -0.3762562,0.0602 -0.1881281,0.0602 -0.4101193,0.19189 v 2.995 H 7.3969142 v -4.22536 h 1.3545224 v 0.46656 q 0.361206,-0.28219 0.6923114,-0.43269 0.3348681,-0.1505 0.741225,-0.1505 0.684786,0 1.068568,0.39883 0.387543,0.39883 0.387543,1.19273 z"
         style="font-style:normal;font-variant:normal;font-weight:bold;font-stretch:normal;font-size:7.70572758px;font-family:sans-serif;-inkscape-font-specification:'sans-serif, Bold';font-variant-ligatures:normal;font-variant-caps:normal;font-variant-numeric:normal;font-feature-settings:normal;text-align:start;writing-mode:lr-tb;text-anchor:start;fill:#ffffff;stroke:none;stroke-width:0.28896654"
         id="path901" />
      <path
         d="m 16.998973,289.57089 h -1.354522 v -0.44022 q -0.349919,0.28596 -0.654686,0.42141 -0.304768,0.13545 -0.703599,0.13545 -0.771326,0 -1.234121,-0.59448 -0.462795,-0.59449 -0.462795,-1.60285 0,-0.53805 0.154265,-0.95193 0.158028,-0.41765 0.428932,-0.71489 0.255855,-0.28219 0.620823,-0.43646 0.364969,-0.15802 0.729937,-0.15802 0.380019,0 0.620823,0.0828 0.244566,0.079 0.500421,0.20318 v -1.7985 h 1.354522 z m -1.354522,-1.16639 v -2.07317 q -0.142978,-0.0602 -0.301005,-0.0865 -0.158028,-0.0263 -0.289718,-0.0263 -0.534283,0 -0.801425,0.33487 -0.267142,0.3311 -0.267142,0.92183 0,0.62082 0.214466,0.90301 0.214466,0.27843 0.688549,0.27843 0.184365,0 0.391306,-0.0677 0.206941,-0.0715 0.364969,-0.18436 z"
         style="font-style:normal;font-variant:normal;font-weight:bold;font-stretch:normal;font-size:7.70572758px;font-family:sans-serif;-inkscape-font-specification:'sans-serif, Bold';font-variant-ligatures:normal;font-variant-caps:normal;font-variant-numeric:normal;font-feature-settings:normal;text-align:start;writing-mode:lr-tb;text-anchor:start;fill:#ffffff;stroke:none;stroke-width:0.28896654"
         id="path903" />
      <path
         d="m 22.439639,287.70842 h -3.100351 q 0.0301,0.49666 0.376256,0.76004 0.349918,0.26338 1.027179,0.26338 0.428933,0 0.831527,-0.15426 0.402594,-0.15427 0.635873,-0.33111 h 0.150502 v 1.08738 q -0.459032,0.18437 -0.865389,0.26714 -0.406357,0.0828 -0.899253,0.0828 -1.271746,0 -1.949007,-0.57191 -0.677261,-0.57191 -0.677261,-1.62919 0,-1.04599 0.639636,-1.65553 0.643398,-0.61329 1.760879,-0.61329 1.030942,0 1.550175,0.52299 0.519234,0.51923 0.519234,1.4975 z m -1.346997,-0.7939 q -0.01129,-0.42517 -0.210704,-0.63963 -0.199416,-0.21447 -0.620823,-0.21447 -0.391306,0 -0.643398,0.20318 -0.252091,0.20318 -0.282192,0.65092 z"
         style="font-style:normal;font-variant:normal;font-weight:bold;font-stretch:normal;font-size:7.70572758px;font-family:sans-serif;-inkscape-font-specification:'sans-serif, Bold';font-variant-ligatures:normal;font-variant-caps:normal;font-variant-numeric:normal;font-feature-settings:normal;text-align:start;writing-mode:lr-tb;text-anchor:start;fill:#ffffff;stroke:none;stroke-width:0.28896654"
         id="path905" />
      <path
         d="m 26.458055,286.63609 h -0.120402 q -0.08654,-0.0301 -0.278429,-0.0452 -0.191891,-0.015 -0.319818,-0.015 -0.289717,0 -0.511709,0.0376 -0.221991,0.0376 -0.477845,0.12793 v 2.82944 H 23.39533 v -4.22536 h 1.354522 v 0.62083 q 0.447745,-0.38378 0.77885,-0.50795 0.331106,-0.12793 0.609536,-0.12793 0.07149,0 0.16179,0.004 0.0903,0.004 0.158027,0.0113 z"
         style="font-style:normal;font-variant:normal;font-weight:bold;font-stretch:normal;font-size:7.70572758px;font-family:sans-serif;-inkscape-font-specification:'sans-serif, Bold';font-variant-ligatures:normal;font-variant-caps:normal;font-variant-numeric:normal;font-feature-settings:normal;text-align:start;writing-mode:lr-tb;text-anchor:start;fill:#ffffff;stroke:none;stroke-width:0.28896654"
         id="path907" />
      <path
         d="m 34.566377,285.73684 q 0,0.37626 -0.13169,0.73746 -0.131689,0.35745 -0.376256,0.60201 -0.334868,0.33111 -0.74875,0.50042 -0.410119,0.16932 -1.023417,0.16932 h -0.899252 v 1.82484 h -1.444824 v -5.60245 h 2.377939 q 0.534284,0 0.899253,0.0941 0.368731,0.0903 0.650923,0.27467 0.338631,0.22199 0.515471,0.56815 0.180603,0.34615 0.180603,0.83152 z m -1.493737,0.0339 q 0,-0.23704 -0.127927,-0.40635 -0.127927,-0.17308 -0.297243,-0.24081 -0.225753,-0.0903 -0.440219,-0.0978 -0.214466,-0.0113 -0.57191,-0.0113 h -0.248329 v 1.6781 h 0.413882 q 0.368731,0 0.605772,-0.0451 0.240804,-0.0451 0.402595,-0.1806 0.139214,-0.1204 0.199415,-0.28596 0.06396,-0.16931 0.06396,-0.41012 z"
         style="font-style:normal;font-variant:normal;font-weight:bold;font-stretch:normal;font-size:7.70572758px;font-family:sans-serif;-inkscape-font-specification:'sans-serif, Bold';font-variant-ligatures:normal;font-variant-caps:normal;font-variant-numeric:normal;font-feature-settings:normal;text-align:start;writing-mode:lr-tb;text-anchor:start;fill:#ffffff;stroke:none;stroke-width:0.28896654"
         id="path909" />
      <path
         d="m 38.573507,286.63609 h -0.120402 q -0.08654,-0.0301 -0.278429,-0.0452 -0.191891,-0.015 -0.319818,-0.015 -0.289718,0 -0.511709,0.0376 -0.221991,0.0376 -0.477845,0.12793 v 2.82944 h -1.354523 v -4.22536 h 1.354523 v 0.62083 q 0.447745,-0.38378 0.77885,-0.50795 0.331106,-0.12793 0.609535,-0.12793 0.07149,0 0.161791,0.004 0.0903,0.004 0.158027,0.0113 z"
         style="font-style:normal;font-variant:normal;font-weight:bold;font-stretch:normal;font-size:7.70572758px;font-family:sans-serif;-inkscape-font-specification:'sans-serif, Bold';font-variant-ligatures:normal;font-variant-caps:normal;font-variant-numeric:normal;font-feature-settings:normal;text-align:start;writing-mode:lr-tb;text-anchor:start;fill:#ffffff;stroke:none;stroke-width:0.28896654"
         id="path911" />
      <path
         d="m 43.509986,287.70842 h -3.100351 q 0.0301,0.49666 0.376256,0.76004 0.349918,0.26338 1.027179,0.26338 0.428932,0 0.831527,-0.15426 0.402594,-0.15427 0.635873,-0.33111 h 0.150502 v 1.08738 q -0.459033,0.18437 -0.865389,0.26714 -0.406357,0.0828 -0.899253,0.0828 -1.271746,0 -1.949007,-0.57191 -0.677261,-0.57191 -0.677261,-1.62919 0,-1.04599 0.639635,-1.65553 0.643399,-0.61329 1.76088,-0.61329 1.030942,0 1.550175,0.52299 0.519234,0.51923 0.519234,1.4975 z m -1.346997,-0.7939 q -0.01129,-0.42517 -0.210704,-0.63963 -0.199416,-0.21447 -0.620823,-0.21447 -0.391306,0 -0.643398,0.20318 -0.252092,0.20318 -0.282192,0.65092 z"
         style="font-style:normal;font-variant:normal;font-weight:bold;font-stretch:normal;font-size:7.70572758px;font-family:sans-serif;-inkscape-font-specification:'sans-serif, Bold';font-variant-ligatures:normal;font-variant-caps:normal;font-variant-numeric:normal;font-feature-settings:normal;text-align:start;writing-mode:lr-tb;text-anchor:start;fill:#ffffff;stroke:none;stroke-width:0.28896654"
         id="path913" />
      <path
         d="m 48.137937,288.23142 q 0,0.65469 -0.586959,1.05728 -0.58696,0.39883 -1.606615,0.39883 -0.564384,0 -1.023417,-0.10535 -0.459032,-0.10535 -0.737462,-0.23328 v -1.11372 h 0.124165 q 0.101589,0.0715 0.233279,0.15803 0.135452,0.0828 0.380018,0.1806 0.210704,0.0865 0.477846,0.15051 0.267142,0.0602 0.571909,0.0602 0.398832,0 0.590723,-0.0865 0.19189,-0.0903 0.19189,-0.26338 0,-0.15427 -0.112877,-0.22199 -0.112876,-0.0715 -0.428932,-0.13545 -0.150502,-0.0339 -0.410119,-0.0715 -0.255854,-0.0414 -0.466558,-0.0978 -0.575672,-0.1505 -0.854101,-0.46656 -0.27843,-0.31982 -0.27843,-0.7939 0,-0.60953 0.575672,-1.01213 0.579435,-0.40635 1.580276,-0.40635 0.474083,0 0.906778,0.0978 0.436457,0.0941 0.681024,0.20318 v 1.06857 h -0.11664 q -0.301005,-0.20694 -0.688549,-0.33487 -0.383781,-0.13169 -0.77885,-0.13169 -0.327343,0 -0.553097,0.0903 -0.221991,0.0903 -0.221991,0.25586 0,0.1505 0.101589,0.22951 0.101589,0.079 0.477846,0.15803 0.206941,0.0414 0.443982,0.0828 0.240804,0.0376 0.481608,0.0978 0.534284,0.13922 0.790138,0.44022 0.255854,0.29725 0.255854,0.74499 z"
         style="font-style:normal;font-variant:normal;font-weight:bold;font-stretch:normal;font-size:7.70572758px;font-family:sans-serif;-inkscape-font-specification:'sans-serif, Bold';font-variant-ligatures:normal;font-variant-caps:normal;font-variant-numeric:normal;font-feature-settings:normal;text-align:start;writing-mode:lr-tb;text-anchor:start;fill:#ffffff;stroke:none;stroke-width:0.28896654"
         id="path915" />
      <path
         d="m 52.713213,288.23142 q 0,0.65469 -0.58696,1.05728 -0.58696,0.39883 -1.606614,0.39883 -0.564384,0 -1.023417,-0.10535 -0.459033,-0.10535 -0.737462,-0.23328 v -1.11372 h 0.124164 q 0.101589,0.0715 0.233279,0.15803 0.135452,0.0828 0.380019,0.1806 0.210703,0.0865 0.477845,0.15051 0.267142,0.0602 0.57191,0.0602 0.398831,0 0.590722,-0.0865 0.191891,-0.0903 0.191891,-0.26338 0,-0.15427 -0.112877,-0.22199 -0.112877,-0.0715 -0.428932,-0.13545 -0.150503,-0.0339 -0.41012,-0.0715 -0.255854,-0.0414 -0.466557,-0.0978 -0.575672,-0.1505 -0.854102,-0.46656 -0.278429,-0.31982 -0.278429,-0.7939 0,-0.60953 0.575672,-1.01213 0.579434,-0.40635 1.580276,-0.40635 0.474083,0 0.906777,0.0978 0.436457,0.0941 0.681024,0.20318 v 1.06857 h -0.116639 q -0.301005,-0.20694 -0.688549,-0.33487 -0.383782,-0.13169 -0.778851,-0.13169 -0.327343,0 -0.553096,0.0903 -0.221992,0.0903 -0.221992,0.25586 0,0.1505 0.10159,0.22951 0.101589,0.079 0.477845,0.15803 0.206941,0.0414 0.443982,0.0828 0.240804,0.0376 0.481608,0.0978 0.534284,0.13922 0.790138,0.44022 0.255855,0.29725 0.255855,0.74499 z"
         style="font-style:normal;font-variant:normal;font-weight:bold;font-stretch:normal;font-size:7.70572758px;font-family:sans-serif;-inkscape-font-specification:'sans-serif, Bold';font-variant-ligatures:normal;font-variant-caps:normal;font-variant-numeric:normal;font-feature-settings:normal;text-align:start;writing-mode:lr-tb;text-anchor:start;fill:#ffffff;stroke:none;stroke-width:0.28896654"
         id="path917" />
      <path
         d="m 57.826538,289.57089 h -1.354522 v -0.46656 q -0.376256,0.28596 -0.688549,0.43646 -0.312293,0.14674 -0.744987,0.14674 -0.699837,0 -1.079856,-0.40259 -0.376256,-0.4026 -0.376256,-1.18897 v -2.75044 h 1.362048 v 2.09575 q 0,0.31982 0.01881,0.53429 0.02258,0.2107 0.09783,0.34991 0.07149,0.13922 0.214466,0.20318 0.14674,0.064 0.406357,0.064 0.173078,0 0.383781,-0.064 0.210704,-0.064 0.406357,-0.18813 v -2.995 h 1.354522 z"
         style="font-style:normal;font-variant:normal;font-weight:bold;font-stretch:normal;font-size:7.70572758px;font-family:sans-serif;-inkscape-font-specification:'sans-serif, Bold';font-variant-ligatures:normal;font-variant-caps:normal;font-variant-numeric:normal;font-feature-settings:normal;text-align:start;writing-mode:lr-tb;text-anchor:start;fill:#ffffff;stroke:none;stroke-width:0.28896654"
         id="path919" />
      <path
         d="m 62.172296,286.63609 h -0.120402 q -0.08654,-0.0301 -0.278429,-0.0452 -0.191891,-0.015 -0.319818,-0.015 -0.289717,0 -0.511709,0.0376 -0.221991,0.0376 -0.477845,0.12793 v 2.82944 h -1.354522 v -4.22536 h 1.354522 v 0.62083 q 0.447745,-0.38378 0.77885,-0.50795 0.331106,-0.12793 0.609536,-0.12793 0.07149,0 0.16179,0.004 0.0903,0.004 0.158027,0.0113 z"
         style="font-style:normal;font-variant:normal;font-weight:bold;font-stretch:normal;font-size:7.70572758px;font-family:sans-serif;-inkscape-font-specification:'sans-serif, Bold';font-variant-ligatures:normal;font-variant-caps:normal;font-variant-numeric:normal;font-feature-settings:normal;text-align:start;writing-mode:lr-tb;text-anchor:start;fill:#ffffff;stroke:none;stroke-width:0.28896654"
         id="path921" />
      <path
         d="m 67.108779,287.70842 h -3.100351 q 0.0301,0.49666 0.376256,0.76004 0.349918,0.26338 1.027179,0.26338 0.428932,0 0.831527,-0.15426 0.402594,-0.15427 0.635873,-0.33111 h 0.150502 v 1.08738 q -0.459033,0.18437 -0.865389,0.26714 -0.406357,0.0828 -0.899253,0.0828 -1.271746,0 -1.949007,-0.57191 -0.677261,-0.57191 -0.677261,-1.62919 0,-1.04599 0.639635,-1.65553 0.643399,-0.61329 1.76088,-0.61329 1.030942,0 1.550175,0.52299 0.519234,0.51923 0.519234,1.4975 z m -1.346997,-0.7939 q -0.01129,-0.42517 -0.210704,-0.63963 -0.199416,-0.21447 -0.620823,-0.21447 -0.391306,0 -0.643398,0.20318 -0.252092,0.20318 -0.282192,0.65092 z"
         style="font-style:normal;font-variant:normal;font-weight:bold;font-stretch:normal;font-size:7.70572758px;font-family:sans-serif;-inkscape-font-specification:'sans-serif, Bold';font-variant-ligatures:normal;font-variant-caps:normal;font-variant-numeric:normal;font-feature-settings:normal;text-align:start;writing-mode:lr-tb;text-anchor:start;fill:#ffffff;stroke:none;stroke-width:0.28896654"
         id="path923" />
      <path
         d="M 74.825789,289.57089 H 70.77351 v -5.60245 h 4.052279 v 1.08362 h -2.61498 v 0.96697 h 2.426852 v 1.08362 h -2.426852 v 1.38462 h 2.61498 z"
         style="font-style:normal;font-variant:normal;font-weight:bold;font-stretch:normal;font-size:7.70572758px;font-family:sans-serif;-inkscape-font-specification:'sans-serif, Bold';font-variant-ligatures:normal;font-variant-caps:normal;font-variant-numeric:normal;font-feature-settings:normal;text-align:start;writing-mode:lr-tb;text-anchor:start;fill:#ffffff;stroke:none;stroke-width:0.28896654"
         id="path925" />
      <path
         d="m 80.3831,289.57089 h -1.580276 l -0.903015,-1.26422 -0.92559,1.26422 h -1.550176 l 1.666815,-2.1108 -1.640477,-2.11456 h 1.580276 l 0.887965,1.24165 0.891727,-1.24165 h 1.553938 l -1.644239,2.0807 z"
         style="font-style:normal;font-variant:normal;font-weight:bold;font-stretch:normal;font-size:7.70572758px;font-family:sans-serif;-inkscape-font-specification:'sans-serif, Bold';font-variant-ligatures:normal;font-variant-caps:normal;font-variant-numeric:normal;font-feature-settings:normal;text-align:start;writing-mode:lr-tb;text-anchor:start;fill:#ffffff;stroke:none;stroke-width:0.28896654"
         id="path927" />
      <path
         d="m 83.829603,289.53327 q -0.218229,0.0564 -0.462795,0.0865 -0.244567,0.0339 -0.598247,0.0339 -0.790139,0 -1.177682,-0.31982 -0.383782,-0.31982 -0.383782,-1.0949 v -1.97535 h -0.556859 v -0.91807 h 0.556859 v -1.20778 h 1.354523 v 1.20778 h 1.267983 v 0.91807 H 82.56162 v 1.4975 q 0,0.22199 0.0038,0.38754 0.0038,0.16556 0.0602,0.29725 0.05268,0.13169 0.184366,0.2107 0.135452,0.0752 0.391306,0.0752 0.105352,0 0.274667,-0.0451 0.173078,-0.0451 0.240804,-0.0828 h 0.112877 z"
         style="font-style:normal;font-variant:normal;font-weight:bold;font-stretch:normal;font-size:7.70572758px;font-family:sans-serif;-inkscape-font-specification:'sans-serif, Bold';font-variant-ligatures:normal;font-variant-caps:normal;font-variant-numeric:normal;font-feature-settings:normal;text-align:start;writing-mode:lr-tb;text-anchor:start;fill:#ffffff;stroke:none;stroke-width:0.28896654"
         id="path929" />
      <path
         d="m 88.796184,287.70842 h -3.100352 q 0.0301,0.49666 0.376256,0.76004 0.349919,0.26338 1.02718,0.26338 0.428932,0 0.831526,-0.15426 0.402594,-0.15427 0.635873,-0.33111 h 0.150503 v 1.08738 q -0.459033,0.18437 -0.86539,0.26714 -0.406356,0.0828 -0.899252,0.0828 -1.271746,0 -1.949007,-0.57191 -0.677261,-0.57191 -0.677261,-1.62919 0,-1.04599 0.639635,-1.65553 0.643398,-0.61329 1.760879,-0.61329 1.030942,0 1.550176,0.52299 0.519234,0.51923 0.519234,1.4975 z m -1.346998,-0.7939 q -0.01129,-0.42517 -0.210703,-0.63963 -0.199416,-0.21447 -0.620823,-0.21447 -0.391307,0 -0.643398,0.20318 -0.252092,0.20318 -0.282192,0.65092 z"
         style="font-style:normal;font-variant:normal;font-weight:bold;font-stretch:normal;font-size:7.70572758px;font-family:sans-serif;-inkscape-font-specification:'sans-serif, Bold';font-variant-ligatures:normal;font-variant-caps:normal;font-variant-numeric:normal;font-feature-settings:normal;text-align:start;writing-mode:lr-tb;text-anchor:start;fill:#ffffff;stroke:none;stroke-width:0.28896654"
         id="path931" />
      <path
         d="m 92.814604,286.63609 h -0.120402 q -0.08654,-0.0301 -0.27843,-0.0452 -0.191891,-0.015 -0.319818,-0.015 -0.289717,0 -0.511708,0.0376 -0.221991,0.0376 -0.477846,0.12793 v 2.82944 h -1.354522 v -4.22536 H 91.1064 v 0.62083 q 0.447745,-0.38378 0.778851,-0.50795 0.331105,-0.12793 0.609535,-0.12793 0.07149,0 0.16179,0.004 0.0903,0.004 0.158028,0.0113 z"
         style="font-style:normal;font-variant:normal;font-weight:bold;font-stretch:normal;font-size:7.70572758px;font-family:sans-serif;-inkscape-font-specification:'sans-serif, Bold';font-variant-ligatures:normal;font-variant-caps:normal;font-variant-numeric:normal;font-feature-settings:normal;text-align:start;writing-mode:lr-tb;text-anchor:start;fill:#ffffff;stroke:none;stroke-width:0.28896654"
         id="path933" />
      <path
         d="m 94.944215,289.57089 h -1.354523 v -4.22536 h 1.354523 z m 0.03763,-4.82737 h -1.429773 v -1.02717 h 1.429773 z"
         style="font-style:normal;font-variant:normal;font-weight:bold;font-stretch:normal;font-size:7.70572758px;font-family:sans-serif;-inkscape-font-specification:'sans-serif, Bold';font-variant-ligatures:normal;font-variant-caps:normal;font-variant-numeric:normal;font-feature-settings:normal;text-align:start;writing-mode:lr-tb;text-anchor:start;fill:#ffffff;stroke:none;stroke-width:0.28896654"
         id="path935" />
      <path
         d="m 100.5429,287.46009 q 0,1.04223 -0.609532,1.64424 -0.605773,0.59825 -1.704441,0.59825 -1.098668,0 -1.708203,-0.59825 -0.605773,-0.60201 -0.605773,-1.64424 0,-1.04975 0.609535,-1.648 0.613298,-0.59824 1.704441,-0.59824 1.106193,0 1.708203,0.60201 0.60577,0.60201 0.60577,1.64423 z m -1.666812,1.02718 q 0.131689,-0.16179 0.195653,-0.38754 0.06773,-0.22952 0.06773,-0.63211 0,-0.37249 -0.06773,-0.62459 -0.06773,-0.25209 -0.188128,-0.40259 -0.120402,-0.15426 -0.289717,-0.21823 -0.169316,-0.064 -0.364969,-0.064 -0.195653,0 -0.349918,0.0527 -0.150503,0.0527 -0.289718,0.21071 -0.124164,0.14674 -0.199415,0.40259 -0.07149,0.25586 -0.07149,0.6434 0,0.34616 0.06396,0.60201 0.06396,0.25209 0.188128,0.40636 0.120402,0.14674 0.285954,0.21446 0.169316,0.0677 0.383782,0.0677 0.184365,0 0.349918,-0.0602 0.169315,-0.064 0.285955,-0.21071 z"
         style="font-style:normal;font-variant:normal;font-weight:bold;font-stretch:normal;font-size:7.70572758px;font-family:sans-serif;-inkscape-font-specification:'sans-serif, Bold';font-variant-ligatures:normal;font-variant-caps:normal;font-variant-numeric:normal;font-feature-settings:normal;text-align:start;writing-mode:lr-tb;text-anchor:start;fill:#ffffff;stroke:none;stroke-width:0.28896654"
         id="path937" />
      <path
         d="m 104.5839,286.63609 h -0.1204 q -0.0865,-0.0301 -0.27843,-0.0452 -0.19189,-0.015 -0.31982,-0.015 -0.28972,0 -0.51171,0.0376 -0.22199,0.0376 -0.47784,0.12793 v 2.82944 h -1.35453 v -4.22536 h 1.35453 v 0.62083 q 0.44774,-0.38378 0.77885,-0.50795 0.3311,-0.12793 0.60953,-0.12793 0.0715,0 0.16179,0.004 0.0903,0.004 0.15803,0.0113 z"
         style="font-style:normal;font-variant:normal;font-weight:bold;font-stretch:normal;font-size:7.70572758px;font-family:sans-serif;-inkscape-font-specification:'sans-serif, Bold';font-variant-ligatures:normal;font-variant-caps:normal;font-variant-numeric:normal;font-feature-settings:normal;text-align:start;writing-mode:lr-tb;text-anchor:start;fill:#ffffff;stroke:none;stroke-width:0.28896654"
         id="path939" />
      <path
         d="m 110.60023,289.68001 q -0.62458,0 -1.1551,-0.18437 -0.52676,-0.18436 -0.90678,-0.54933 -0.38002,-0.36497 -0.59072,-0.91054 -0.20695,-0.54557 -0.20695,-1.26046 0,-0.66597 0.19942,-1.20778 0.19942,-0.54181 0.57943,-0.92936 0.36497,-0.37249 0.90302,-0.57567 0.54181,-0.20318 1.18144,-0.20318 0.35369,0 0.63588,0.0414 0.28595,0.0376 0.52676,0.10159 0.25209,0.0715 0.45527,0.16179 0.20694,0.0865 0.3612,0.16179 v 1.35829 h -0.16555 q -0.10535,-0.0903 -0.26714,-0.21447 -0.15803,-0.12417 -0.36121,-0.24457 -0.20694,-0.1204 -0.44774,-0.20318 -0.24081,-0.0828 -0.51547,-0.0828 -0.30477,0 -0.57944,0.0978 -0.27467,0.0941 -0.50795,0.31606 -0.22199,0.21447 -0.3612,0.56815 -0.13545,0.35368 -0.13545,0.85786 0,0.52676 0.14674,0.88044 0.1505,0.35368 0.37625,0.55686 0.22952,0.20694 0.51171,0.29724 0.28219,0.0865 0.55686,0.0865 0.26338,0 0.51923,-0.079 0.25962,-0.079 0.47785,-0.21447 0.18437,-0.10911 0.34239,-0.23328 0.15803,-0.12416 0.25962,-0.21446 h 0.1505 v 1.33947 q -0.2107,0.0941 -0.40259,0.17684 -0.19189,0.0828 -0.4026,0.14298 -0.27466,0.079 -0.51547,0.1204 -0.2408,0.0414 -0.66221,0.0414 z"
         style="font-style:normal;font-variant:normal;font-weight:bold;font-stretch:normal;font-size:7.70572758px;font-family:sans-serif;-inkscape-font-specification:'sans-serif, Bold';font-variant-ligatures:normal;font-variant-caps:normal;font-variant-numeric:normal;font-feature-settings:normal;text-align:start;writing-mode:lr-tb;text-anchor:start;fill:#ffffff;stroke:none;stroke-width:0.28896654"
         id="path941" />
      <path
         d="m 114.93095,289.57089 h -1.35453 v -5.85454 h 1.35453 z"
         style="font-style:normal;font-variant:normal;font-weight:bold;font-stretch:normal;font-size:7.70572758px;font-family:sans-serif;-inkscape-font-specification:'sans-serif, Bold';font-variant-ligatures:normal;font-variant-caps:normal;font-variant-numeric:normal;font-feature-settings:normal;text-align:start;writing-mode:lr-tb;text-anchor:start;fill:#ffffff;stroke:none;stroke-width:0.28896654"
         id="path943" />
      <path
         d="m 120.37161,287.70842 h -3.10035 q 0.0301,0.49666 0.37625,0.76004 0.34992,0.26338 1.02718,0.26338 0.42893,0 0.83153,-0.15426 0.40259,-0.15427 0.63587,-0.33111 h 0.1505 v 1.08738 q -0.45903,0.18437 -0.86539,0.26714 -0.40635,0.0828 -0.89925,0.0828 -1.27174,0 -1.94901,-0.57191 -0.67726,-0.57191 -0.67726,-1.62919 0,-1.04599 0.63964,-1.65553 0.6434,-0.61329 1.76088,-0.61329 1.03094,0 1.55017,0.52299 0.51924,0.51923 0.51924,1.4975 z m -1.347,-0.7939 q -0.0113,-0.42517 -0.2107,-0.63963 -0.19942,-0.21447 -0.62083,-0.21447 -0.3913,0 -0.64339,0.20318 -0.2521,0.20318 -0.2822,0.65092 z"
         style="font-style:normal;font-variant:normal;font-weight:bold;font-stretch:normal;font-size:7.70572758px;font-family:sans-serif;-inkscape-font-specification:'sans-serif, Bold';font-variant-ligatures:normal;font-variant-caps:normal;font-variant-numeric:normal;font-feature-settings:normal;text-align:start;writing-mode:lr-tb;text-anchor:start;fill:#ffffff;stroke:none;stroke-width:0.28896654"
         id="path945" />
      <path
         d="m 123.88584,288.46846 v -0.88044 q -0.27466,0.0226 -0.59448,0.064 -0.31982,0.0376 -0.48537,0.0903 -0.20318,0.064 -0.31229,0.18813 -0.10536,0.1204 -0.10536,0.31981 0,0.13169 0.0226,0.21447 0.0226,0.0828 0.11288,0.15803 0.0865,0.0752 0.20694,0.11287 0.1204,0.0339 0.37625,0.0339 0.20318,0 0.41012,-0.0828 0.21071,-0.0828 0.36873,-0.21823 z m 0,0.65469 q -0.10911,0.0828 -0.2709,0.19941 -0.16179,0.11664 -0.30477,0.18437 -0.19941,0.0903 -0.41388,0.13169 -0.21447,0.0451 -0.47032,0.0451 -0.60201,0 -1.00837,-0.37249 -0.40635,-0.3725 -0.40635,-0.95193 0,-0.4628 0.20694,-0.75628 0.20694,-0.29348 0.58696,-0.46279 0.37625,-0.16932 0.93311,-0.24081 0.55686,-0.0715 1.15511,-0.10535 v -0.0226 q 0,-0.34992 -0.28596,-0.48161 -0.28595,-0.13545 -0.84281,-0.13545 -0.33487,0 -0.71489,0.1204 -0.38001,0.11664 -0.54557,0.1806 h -0.12416 v -1.01965 q 0.21446,-0.0564 0.69607,-0.13169 0.48537,-0.079 0.97074,-0.079 1.15511,0 1.66682,0.35745 0.51547,0.35368 0.51547,1.11371 v 2.8746 h -1.34324 z"
         style="font-style:normal;font-variant:normal;font-weight:bold;font-stretch:normal;font-size:7.70572758px;font-family:sans-serif;-inkscape-font-specification:'sans-serif, Bold';font-variant-ligatures:normal;font-variant-caps:normal;font-variant-numeric:normal;font-feature-settings:normal;text-align:start;writing-mode:lr-tb;text-anchor:start;fill:#ffffff;stroke:none;stroke-width:0.28896654"
         id="path947" />
      <path
         d="m 130.71866,289.57089 h -1.36205 v -2.09574 q 0,-0.25586 -0.0263,-0.50795 -0.0263,-0.25586 -0.0903,-0.37626 -0.0753,-0.13921 -0.22199,-0.20318 -0.14298,-0.064 -0.40259,-0.064 -0.18437,0 -0.37626,0.0602 -0.18813,0.0602 -0.41012,0.19189 v 2.995 h -1.35452 v -4.22536 h 1.35452 v 0.46656 q 0.36121,-0.28219 0.69231,-0.43269 0.33487,-0.1505 0.74123,-0.1505 0.68478,0 1.06856,0.39883 0.38755,0.39883 0.38755,1.19273 z"
         style="font-style:normal;font-variant:normal;font-weight:bold;font-stretch:normal;font-size:7.70572758px;font-family:sans-serif;-inkscape-font-specification:'sans-serif, Bold';font-variant-ligatures:normal;font-variant-caps:normal;font-variant-numeric:normal;font-feature-settings:normal;text-align:start;writing-mode:lr-tb;text-anchor:start;fill:#ffffff;stroke:none;stroke-width:0.28896654"
         id="path949" />
      <path
         d="m 133.32235,289.57089 h -1.35452 v -4.22536 h 1.35452 z m 0.0376,-4.82737 h -1.42978 v -1.02717 h 1.42978 z"
         style="font-style:normal;font-variant:normal;font-weight:bold;font-stretch:normal;font-size:7.70572758px;font-family:sans-serif;-inkscape-font-specification:'sans-serif, Bold';font-variant-ligatures:normal;font-variant-caps:normal;font-variant-numeric:normal;font-feature-settings:normal;text-align:start;writing-mode:lr-tb;text-anchor:start;fill:#ffffff;stroke:none;stroke-width:0.28896654"
         id="path951" />
      <path
         d="m 138.84579,289.57089 h -1.36205 v -2.09574 q 0,-0.25586 -0.0263,-0.50795 -0.0263,-0.25586 -0.0903,-0.37626 -0.0752,-0.13921 -0.22199,-0.20318 -0.14298,-0.064 -0.4026,-0.064 -0.18436,0 -0.37625,0.0602 -0.18813,0.0602 -0.41012,0.19189 v 2.995 h -1.35452 v -4.22536 h 1.35452 v 0.46656 q 0.36121,-0.28219 0.69231,-0.43269 0.33487,-0.1505 0.74123,-0.1505 0.68478,0 1.06856,0.39883 0.38755,0.39883 0.38755,1.19273 z"
         style="font-style:normal;font-variant:normal;font-weight:bold;font-stretch:normal;font-size:7.70572758px;font-family:sans-serif;-inkscape-font-specification:'sans-serif, Bold';font-variant-ligatures:normal;font-variant-caps:normal;font-variant-numeric:normal;font-feature-settings:normal;text-align:start;writing-mode:lr-tb;text-anchor:start;fill:#ffffff;stroke:none;stroke-width:0.28896654"
         id="path953" />
      <path
         d="m 144.20368,289.08552 q 0,0.59449 -0.16931,1.00084 -0.16932,0.40636 -0.47409,0.63588 -0.30476,0.23328 -0.73746,0.33486 -0.42893,0.10536 -0.97074,0.10536 -0.44022,0 -0.86915,-0.0527 -0.42517,-0.0527 -0.73746,-0.12793 v -1.05728 h 0.16555 q 0.24833,0.0978 0.60577,0.17684 0.35745,0.0828 0.63964,0.0828 0.37625,0 0.60953,-0.0715 0.23704,-0.0677 0.36121,-0.19565 0.11664,-0.1204 0.16931,-0.30853 0.0527,-0.18813 0.0527,-0.45151 v -0.079 q -0.24457,0.19941 -0.54181,0.31605 -0.29724,0.11664 -0.66221,0.11664 -0.88796,0 -1.36957,-0.53428 -0.48161,-0.53429 -0.48161,-1.62543 0,-0.523 0.14674,-0.90301 0.14674,-0.38002 0.41388,-0.66222 0.24833,-0.26337 0.60954,-0.41011 0.36496,-0.14674 0.74498,-0.14674 0.3424,0 0.62083,0.0828 0.28219,0.079 0.5117,0.22199 l 0.0489,-0.18813 h 1.31313 z m -1.35452,-0.84657 v -1.91515 q -0.11664,-0.0489 -0.28595,-0.0752 -0.16932,-0.0301 -0.30477,-0.0301 -0.53429,0 -0.80143,0.30853 -0.26714,0.30477 -0.26714,0.8541 0,0.60954 0.22575,0.85034 0.22952,0.2408 0.67726,0.2408 0.20318,0 0.39884,-0.064 0.19565,-0.064 0.35744,-0.16931 z"
         style="font-style:normal;font-variant:normal;font-weight:bold;font-stretch:normal;font-size:7.70572758px;font-family:sans-serif;-inkscape-font-specification:'sans-serif, Bold';font-variant-ligatures:normal;font-variant-caps:normal;font-variant-numeric:normal;font-feature-settings:normal;text-align:start;writing-mode:lr-tb;text-anchor:start;fill:#ffffff;stroke:none;stroke-width:0.28896654"
         id="path955" />
    </g>
    <path
       style="fill:#005ca9;fill-opacity:1;stroke:#ffffff;stroke-width:1.42875004;stroke-linecap:butt;stroke-linejoin:miter;stroke-miterlimit:4;stroke-dasharray:none;stroke-opacity:1"
       d="m 15.39028,286.00283 56.50744,-52.16072 54.80656,51.97172 10.58334,1e-5 -65.3899,-60.66519 -13.41816,12.28423 0.189,-7.9375 -15.61559,0.11071 -0.45627,22.00876 -36.84481,34.38796 z"
       id="path841"
       inkscape:connector-curvature="0"
       sodipodi:nodetypes="ccccccccccc" />
    <path
       style="fill:#ffffff;stroke:none;stroke-width:0.26458332px;stroke-linecap:butt;stroke-linejoin:miter;stroke-opacity:1"
       d="m 54.96439,232.33019 -0.18899,8.59896 -2.45685,2.74033 0.18899,-11.24479 z"
       id="path849"
       inkscape:connector-curvature="0" />
    <g
       aria-label="P"
       style="font-style:normal;font-variant:normal;font-weight:normal;font-stretch:normal;font-size:50.79999924px;line-height:1.25;font-family:Gruppo;-inkscape-font-specification:Gruppo;letter-spacing:0px;word-spacing:0px;fill:#005ca9;fill-opacity:1;stroke:#ffffff;stroke-width:2.96499991;stroke-miterlimit:4;stroke-dasharray:none;paint-order:stroke fill markers"
       id="text817-6">
      <path
         d="m 117.17539,244.04766 q -0.59532,0 -1.14102,-0.0496 -0.49609,-0.0992 -1.0914,0 -0.0496,-0.44649 0.0992,-0.44649 0.14883,0 0.24805,-0.0992 1.53789,-0.34726 2.97656,-0.0496 1.48828,0.29766 2.67891,0.89297 0.0496,0.19844 0.19844,0.29766 0.19843,0.0992 0.29765,0.24805 0.24805,0.24804 0.39688,0.64492 0.19844,0.34726 0.39687,0.64492 0.0992,0.19844 0.24805,0.34727 0.14883,0.0992 0.0496,0.34726 -0.29766,0.14883 -0.5457,0 -0.24805,-0.14883 -0.4961,-0.39687 -0.24804,-0.24805 -0.49609,-0.44649 -0.19844,-0.24804 -0.49609,-0.24804 -0.0496,-0.19844 -0.34727,-0.4961 -0.34727,-0.24805 -0.59531,-0.29765 -0.19844,-0.0992 -0.39688,-0.19844 -0.14883,-0.0992 -0.29765,-0.14883 -0.0992,-0.0992 -0.19844,-0.14883 -0.19844,-0.0992 -0.39688,-0.0496 -0.14882,0 -0.39687,-0.0992 -0.14883,-0.0992 -0.29766,-0.14882 -0.14883,-0.0496 -0.39687,-0.0992 z m 5.80429,14.08906 q 0.0992,0.34726 0.39688,0.49609 0.29765,0.14883 0.5457,0.44649 0.64492,0.79375 0.14883,1.63711 -0.24805,0.74414 -0.34727,1.48828 -0.0496,0.69453 -0.34726,1.38906 -0.24805,0.5457 -0.64492,1.0418 -0.39688,0.44648 -0.59532,0.99218 -0.44648,0.24805 -0.59531,0.84336 -0.24805,0.24805 -0.49609,0.39688 -0.19844,0.0992 -0.5457,0.29766 -0.14883,0.0992 -0.29766,0.19843 -0.0992,0.0496 -0.24805,0.0992 -0.24804,0.0992 -0.44648,0.0496 -0.19844,-0.0496 -0.44649,0.0496 -0.14882,0 -0.34726,0.14883 -0.19844,0.14883 -0.29766,0.24805 -0.24805,0.24804 -0.44648,0.64492 -0.19844,0.39687 -0.59532,0.5457 -0.69453,0.14883 -1.33945,0.24805 -0.64492,0.0992 -1.48828,0.14883 -0.44648,0 -1.0418,0.0496 -0.59531,0 -1.14101,0.0992 -1.28985,0 -2.33164,0.0992 -1.0418,0.0992 -2.18282,0.14883 -0.74414,0.0496 -1.38906,0.0992 -0.64492,0 -1.38906,0.14883 -0.14883,0.0496 -0.29766,0.0992 -0.14882,0.0496 -0.24804,0.0496 -0.39688,0.0496 -0.79375,0.0496 -0.39688,-0.0496 -0.79375,-0.0496 -0.29766,0 -0.54571,-0.0496 -0.19843,-0.0992 -0.44648,-0.0992 -0.24805,0 -0.5457,0.0496 -0.29766,0.0496 -0.59532,0.0992 -0.24804,0 -0.5457,0 -0.24805,-0.0496 -0.496093,-0.0992 -0.446485,-0.0496 -0.942579,0.0496 -0.496093,0.0496 -0.942578,-0.0496 -0.396875,0 -0.694531,0.0992 -0.248047,0.0496 -0.545703,0 -0.396875,0.94257 -0.396875,1.53789 0,0.59531 -0.248047,1.04179 0.04961,0.24805 0.248047,0.29766 0.198437,0 0.347266,0.19844 0.09922,0.24804 0.04961,0.5457 -0.04961,0.24805 0,0.5457 0.04961,0.19844 0.04961,0.39688 0.04961,0.19844 0.04961,0.44648 0.04961,1.28985 0.148828,2.6293 0.09922,1.28984 0.148828,2.33164 0,0.34727 -0.148828,0.59531 -0.09922,0.19844 -0.297656,0.39688 -0.148829,0.14883 -0.347266,0.34726 -0.198438,0.14883 -0.248047,0.44649 -0.297656,0.24804 -0.644922,0.49609 -0.297656,0.29766 -0.694531,0.39688 -0.396875,0.0992 -0.843359,0.0496 -0.396875,0 -0.79375,0 -0.496094,0 -1.041797,0.0496 -0.496094,0.0496 -1.041797,0.0496 -0.297656,0 -0.644922,-0.0992 -0.347266,-0.0496 -0.644922,-0.0496 -0.545703,0.0496 -1.041797,0.0496 -0.496093,0 -1.041797,-0.14882 -0.198437,-0.19844 -0.396874,-0.29766 -0.198438,-0.0496 -0.347266,-0.19844 -0.248047,-0.19843 -0.496094,-0.39687 -0.248047,-0.19844 -0.694531,-0.29766 -0.297656,0 -0.595313,0.0496 -0.297656,0.0496 -0.545703,0.14883 -0.644922,0.0992 -0.892968,0.24805 -0.198438,0.0992 -0.446485,0.19843 -0.396875,0.19844 -0.694531,0.44649 -0.297656,0.24804 -0.892969,0.34726 -0.248047,0.0496 -0.74414,-0.14882 -0.446485,-0.19844 -0.595313,-0.39688 -0.248047,-0.24805 -0.297656,-0.74414 -0.04961,-0.5457 -0.148828,-1.09141 -0.09922,-0.34726 -0.148828,-0.64492 -0.04961,-0.29765 -0.148829,-0.5457 -0.04961,-0.34727 0.04961,-0.64492 0.09922,-0.34727 0.148828,-0.59532 0,-0.44648 0,-0.94257 0,-0.54571 -0.09922,-1.0418 0,-0.24805 -0.09922,-0.44648 -0.09922,-0.24805 -0.09922,-0.4961 0,-0.14883 0,-0.29765 0.04961,-0.19844 0.04961,-0.39688 0,-0.39687 -0.09922,-0.79375 -0.09922,-0.44648 -0.04961,-0.79375 0.04961,-0.39687 0.297656,-0.64492 0.297656,-0.24805 0.396875,-0.4961 0.04961,-0.19843 0.04961,-0.49609 0,-0.29766 0,-0.5457 0,-1.14102 -0.545704,-1.78594 -0.09922,-0.0992 -0.198437,-0.14883 -0.09922,-0.0992 -0.198437,-0.24804 -0.248047,-0.44649 -0.09922,-1.0418 0.148828,-0.59531 0.198437,-0.99219 0.04961,-0.39687 0.04961,-0.74414 0,-0.39687 0.148828,-0.64492 0.198437,-0.24805 0.396875,-0.39688 0.198437,-0.19843 0.198437,-0.44648 0,-0.39688 -0.297656,-0.5457 -0.297656,-0.19844 -0.396875,-0.44649 -0.148828,-0.29765 -0.148828,-0.69453 0,-0.39687 0,-0.94258 -0.04961,-0.84336 -0.148828,-1.73633 -0.04961,-0.94257 -0.04961,-1.68671 0,-1.5379 -0.04961,-3.02618 -0.04961,-1.48828 -0.297656,-2.72851 0.148828,-1.28985 -0.09922,-2.48047 -0.198437,-1.19063 0,-2.53008 0.09922,-0.14883 0.297656,-0.5457 0.347266,-0.14883 0.644922,-0.39688 0.347266,-0.24804 0.892969,-0.34726 1.289844,0.0496 2.033984,0 0.79375,-0.0496 1.488281,0.0992 0.148829,0.14882 0.198438,0.29765 0.04961,0.14883 0.198437,0.24805 0.198438,0.14883 0.79375,0.29766 0.595313,0.14882 0.992188,0.0496 0.347266,-0.0992 0.644922,-0.34726 0.297656,-0.24805 0.545703,-0.34727 0.595312,-0.14882 0.74414,-0.19843 0.198438,-0.0992 0.347266,-0.19844 0.297656,-0.0992 0.595313,-0.0992 0.347265,0 0.694531,-0.0496 0.198437,-0.0496 0.694531,-0.14883 0.396875,0 0.744141,0.0496 0.347265,0 0.694531,-0.0496 0.248047,-0.0496 0.595312,0 0.396875,0 0.694532,-0.0496 0.148828,-0.0496 0.248047,-0.0992 0.148828,-0.0496 0.297656,-0.0496 0.595312,-0.0496 1.141015,0.0496 0.595313,0.0496 1.141016,0 0.248047,0 0.545703,0.0496 0.297656,0 0.545703,0 0.992188,-0.0496 2.083594,-0.19843 1.091404,-0.19844 2.083594,-0.19844 0.89297,0 1.68672,0.0496 0.84336,0 1.63711,-0.14883 0.14883,-0.0496 0.5457,-0.14883 0.39688,-0.0992 0.74414,-0.0992 0.39688,0 0.79375,-0.0992 0.0992,-0.0496 0.24805,0 0.19844,0 0.44648,0 0.29766,-0.0496 0.79375,-0.0496 0.54571,0 0.84336,0.0992 0.19844,0.0992 0.34727,0.24805 0.14883,0.0992 0.29765,0.19844 0.24805,0.14883 0.84336,0.29765 0.64493,0.14883 0.99219,0.0496 0.34727,-0.0992 0.5457,-0.34726 0.24805,-0.24805 0.59532,-0.34727 0.34726,-0.0992 0.5457,0 0.24805,0.0992 0.49609,-0.14883 0.4961,0.14883 0.99219,0.19844 0.49609,0 1.0418,-0.0496 0.39687,0 0.84336,0.0992 0.49609,0.0496 0.89297,0.14883 0.44648,0.0992 0.79375,0.19844 0.39687,0.0992 0.69453,0.24804 0.19843,0.0992 0.34726,0.24805 0.14883,0.14883 0.39688,0.19844 0.29765,0.44648 0.64492,0.79375 0.39687,0.34726 0.79375,0.69453 0.24805,0.59531 0.5457,1.14101 0.29766,0.54571 0.84336,0.99219 0.0992,0.24805 0.19844,0.54571 0.0992,0.24804 0.29766,0.39687 0.14882,0.99219 0.5457,1.93477 0.39687,0.89296 0.29765,1.98437 -0.0496,0.24805 -0.0992,0.49609 -0.0496,0.24805 0.0496,0.54571 -0.24805,0.29765 -0.24805,0.84336 0,0.49609 -0.0992,0.94258 -0.19844,0.0496 -0.24805,0.24804 -0.0496,0.14883 -0.0496,0.24805 z m -41.820699,-4.11758 q 0.248047,-0.0992 0.297656,-0.39687 0.04961,-0.29766 0.198438,-0.4961 -0.545703,-0.24804 -0.644922,-0.19844 -0.09922,0.0496 -0.198437,-0.0496 -0.198438,0.14882 -0.248047,0.39687 -0.04961,0.19844 -0.04961,0.44648 0.04961,0.19844 0.198438,0.29766 0.198437,0.0992 0.446484,0 z m 1.438672,-4.71289 q 0.04961,-0.24805 0.09922,-0.44648 0.04961,-0.19844 -0.04961,-0.34727 -0.09922,-0.14883 -0.446484,-0.29766 -0.297656,-0.14882 -0.446484,-0.14882 -0.148828,0 -0.496094,0.0992 -0.347266,0.0992 -0.446484,0.19844 -0.297657,0.14883 -0.396875,0.44649 -0.04961,0.24804 0,0.59531 0.04961,0.34726 0.09922,0.74414 0.09922,0.34727 0.04961,0.69453 0.148828,0.0992 0.198437,0.24805 0.09922,0.14883 0.297656,0.14883 0.198438,0 0.297657,-0.0992 0.09922,-0.14883 0.148828,-0.34727 0.09922,-0.24805 0.148828,-0.44648 0.04961,-0.24805 0.198437,-0.39688 0.248047,-0.24804 0.446485,-0.29765 0.198437,-0.0992 0.297656,-0.34727 z m 7.590234,32.14688 q 0.396875,0 0.545703,-0.29766 0.148829,-0.29766 0.09922,-0.64492 -0.248047,-0.19844 -0.446484,-0.0992 -0.148828,0.0992 -0.396875,0.19844 -0.09922,0.19843 -0.09922,0.49609 0.04961,0.24805 0.297656,0.34727 z m 19.397263,-23.36602 q -0.24804,0 -0.44648,0.29766 -0.14883,0.24804 -0.0992,0.49609 0.24805,0.0992 0.5457,0 0.29766,-0.0992 0.29766,-0.34727 z m -14.535544,22.47305 q 0.297656,-0.34727 0.198438,-0.99219 -0.04961,-0.64492 -0.198438,-1.14102 -0.347266,-0.14882 -0.545703,-0.14882 -0.198438,-0.0496 -0.446484,0.24804 -0.148829,0.19844 -0.148829,0.4961 0,0.29765 0.04961,0.64492 -0.148828,0.19844 -0.297656,0.44648 -0.09922,0.19844 -0.347266,0.29766 -0.198438,0.0992 -0.396875,0.0992 -0.198438,0 -0.297656,0.0992 -0.248047,0.24804 -0.09922,0.5457 0.198437,0.24805 0.446484,0.29766 0.248047,0.0496 0.496094,-0.0496 0.297656,-0.0992 0.496094,-0.19844 0.644922,-0.19844 0.74414,-0.39688 0.148829,-0.19843 0.347266,-0.24804 z m 11.558984,-19.00039 q 0.5457,-0.54571 0.44648,-1.43868 -0.0992,-0.89296 0,-1.73632 0.0496,-0.24805 0.0496,-0.54571 0,-0.29765 0.0496,-0.5457 0.0496,-0.44648 0.19844,-0.89297 0.14883,-0.49609 0.0992,-0.89297 0,-0.24804 -0.14883,-0.59531 -0.14883,-0.39688 -0.24805,-0.64492 -0.24804,-0.39688 -0.64492,-0.84336 -0.39687,-0.4961 -0.84336,-0.69453 -0.39687,-0.19844 -1.04179,-0.14883 -0.64493,0.0496 -1.24024,0 -1.04179,-0.0992 -1.73633,-0.0496 -0.64492,0.0496 -1.33945,0.14883 -0.69453,0.0992 -1.438671,0.24804 -0.694531,0.0992 -1.240234,0.0992 -0.148828,0 -0.297657,0 -0.148828,-0.0496 -0.297656,-0.0496 -0.297656,0.0496 -0.595312,0.14883 -0.248047,0.0992 -0.595313,0.0992 -0.198437,0.39688 -0.09922,0.89297 0.09922,0.44648 0.09922,0.84336 0.04961,0.69453 0.04961,1.38906 0,0.69453 0.09922,1.38906 0,0.34727 0,0.64493 0,0.29765 0.09922,0.49609 0.09922,0.59531 -0.09922,0.64492 -0.148828,0 -0.297656,0.14883 -0.09922,0.0992 -0.248047,0.59531 -0.148828,0.44649 0,0.74414 0.446485,0.54571 0.446485,0.79375 0,0.24805 -0.04961,0.54571 0,0.24804 0,0.5457 0,0.24805 0.09922,0.5457 1.438672,-0.0496 2.778125,-0.0496 1.339453,-0.0496 2.778129,-0.14883 0.29765,0 0.49609,-0.0496 0.19844,-0.0992 0.44648,-0.0992 0.39688,0 0.79375,0 0.44649,0 0.79375,-0.0992 0.69454,-0.14883 1.48829,-0.54571 0.79375,-0.44648 1.19062,-0.89296 z m 3.32383,1.88515 q 0.14883,-0.0992 0.24805,-0.69453 0.14882,-0.59531 0.0992,-1.0418 -0.0496,-0.49609 -0.24804,-0.79375 -0.19844,-0.29765 -0.69453,-0.19843 -0.0992,0.34726 -0.19844,0.64492 -0.0496,0.29765 -0.0496,0.64492 -0.0496,0.89297 -0.69453,1.19063 -0.64492,0.29765 -1.0418,0.5457 0.49609,0.74414 0.99219,0.49609 0.49609,-0.29765 0.84336,-0.44648 0.19844,-0.0992 0.39687,-0.14883 0.19844,-0.0496 0.34727,-0.19844 z m 7.78867,-14.18828 q 0.64492,-0.29766 0.29766,-1.09141 -0.0992,-0.14882 -0.29766,-0.24804 -0.14883,-0.0992 -0.19844,-0.29766 -0.64492,-0.49609 -1.48828,-0.44648 -0.79375,0 -1.0418,0.5457 0.0496,0.19844 0.0992,0.39688 0.0496,0.14882 0.19844,0.24804 0.24805,-0.0496 0.34727,0 0.14882,0 0.39687,0 0.0992,0.14883 0.24805,0.24805 0.19844,0.0992 0.34726,0.24805 0.0992,0.0992 0.14883,0.24804 0.0992,0.0992 0.24805,0.14883 0.29766,0.0992 0.69453,0 z m 3.96875,12.55117 q 0.34727,-0.84336 0.0992,-1.68672 -0.0992,-0.14882 -0.34727,-0.14882 -0.24804,-0.0496 -0.39687,0.0992 -0.19844,0.14883 -0.39688,0.79375 -0.14882,0.59532 -0.19843,0.84336 0,0.14883 0.0992,0.44649 0.0992,0.24805 0.19844,0.34726 0.34727,0.34727 0.59531,0 0.24805,-0.39687 0.34727,-0.69453 z m -44.549218,-5.95312 q 0.248047,0.44648 0.248047,1.19062 0,0.69453 -0.545703,0.74414 -0.248047,0 -0.347266,-0.0992 -0.09922,-0.14882 -0.347266,-0.19843 -0.248046,-0.39688 -0.198437,-0.89297 0.04961,-0.5457 0.248047,-0.94258 0.09922,-0.69453 0.04961,-1.33945 -0.04961,-0.69453 -0.09922,-1.38907 0,-0.34726 0,-0.69453 0.04961,-0.39687 -0.148828,-0.64492 0.198438,-0.5457 0.09922,-1.19062 -0.09922,-0.64493 -0.248047,-1.24024 -0.09922,-0.64492 -0.148828,-1.24023 0,-0.64492 0.347266,-1.19063 0.198437,-0.14883 0.496093,-0.24804 0.347266,-0.0992 0.496094,0.0992 -0.248047,0.29766 -0.248047,0.39688 0.04961,0.0496 0,0.0992 -0.148828,0.44648 -0.09922,0.59531 0.04961,0.0992 0.09922,0.24805 0.09922,0.29765 0.09922,0.64492 0,0.34727 0.09922,0.59531 -0.04961,1.14102 0,2.28203 0.09922,1.09141 0.148828,2.23243 0.04961,1.0914 0,2.18281 z m 47.079298,-7.34219 q 0.0992,0.29766 0,0.74414 -0.0496,0.44649 -0.44649,0.39688 -0.29765,-0.0496 -0.59531,-0.59532 -0.24805,-0.5457 -0.34726,-0.94257 -0.0496,-0.19844 -0.14883,-0.34727 -0.0496,-0.14883 0.0992,-0.24805 0.24804,-0.0496 0.79375,0.34727 0.5457,0.34726 0.64492,0.64492 z m -24.507033,5.01055 q 0.297653,0.79375 -0.248047,0.89297 -0.545703,0.0992 -0.942578,0 -0.396875,-0.19844 -0.347265,-0.44649 0.04961,-0.24805 0.347265,-0.29765 0.297656,-0.0992 0.595313,-0.14883 0.148828,0 0.297656,0 0.198437,-0.0496 0.297656,0 z m 4.911333,0.0496 q 0.59531,0.39687 0.99218,1.19062 0.39688,0.79375 0,1.73633 -0.24804,0.0496 -0.34726,0 -0.0496,-0.0992 -0.19844,-0.14883 -0.24805,-0.29765 -0.34727,-0.59531 -0.0992,-0.34727 -0.34726,-0.59531 -0.24805,-0.19844 -0.5457,-0.29766 -0.24805,-0.14883 -0.34727,-0.49609 -0.24805,-0.14883 -0.49609,-0.0496 -0.19844,0.0496 -0.54571,0.0992 -0.19843,0 -0.39687,-0.0496 -0.14883,-0.0496 -0.34727,-0.0496 -0.59531,0.0496 -0.59531,0 0,-0.0496 -0.0992,-0.0496 -0.14883,-0.29766 0.29766,-0.54571 0.49609,-0.29765 0.89297,-0.29765 0.69453,0.14883 0.94257,0.0496 0.29766,-0.0992 0.54571,-0.0496 0.24804,0 0.49609,0.0496 0.24805,0 0.44649,0.0992 z m 18.65312,12.55117 q 0.29766,0 0.34727,0.29765 0.0992,0.29766 0.19843,0.4961 -0.0992,0.19844 -0.19843,0.34726 -0.0992,0.14883 -0.34727,0.14883 -0.44648,-0.0496 -0.44648,-0.64492 0.0496,-0.59531 0.44648,-0.64492 z m -1.48828,1.5875 q 0.14883,-0.0992 0.29765,0.0992 0.19844,0.14883 0.29766,0.24804 -0.0992,0.19844 -0.19844,0.39688 -0.0496,0.19844 -0.14882,0.34726 -0.84336,1.09141 -2.28204,1.5379 -0.29765,0.0992 -0.59531,0.24804 -0.24804,0.14883 -0.49609,0.24805 -0.44649,0.14883 -0.99219,0.24805 -0.49609,0.0496 -0.89297,0.19843 -0.19844,0.0992 -0.44648,0.14883 -0.19844,0 -0.39688,0.0496 -1.04179,0.19844 -2.23242,0.34727 -1.19062,0.0992 -2.03398,-0.29766 0,-0.19844 -0.0992,-0.34727 -0.0496,-0.19843 0.0496,-0.29765 0.39687,0.0992 0.84336,-0.0496 0.44648,-0.19844 0.84336,0.0496 0.94257,-0.29766 1.93476,-0.29766 1.0418,-0.0496 1.88516,-0.49609 0.94258,-0.0496 1.5875,-0.4961 0.69453,-0.49609 1.28984,-0.99218 0.99219,-0.24805 1.24024,-0.44649 0.24804,-0.24804 0.5457,-0.44648 z m -38.546485,15.92461 q 0.644922,-0.24805 1.339453,-0.24805 0.744141,0 0.843359,0.79375 -0.09922,0.24805 -0.297656,0.19844 -0.198437,-0.0496 -0.347265,0 -0.248047,0.0496 -0.396875,0.0992 -0.09922,0.0496 -0.347266,0.0992 -0.545703,0.0992 -1.091406,0.24804 -0.545703,0.19844 -1.041797,0.24805 -0.396875,0 -0.744141,-0.0496 -0.347265,0 -0.74414,0.0992 -0.198438,0 -0.396875,0.0496 -0.148829,0.0992 -0.297657,0.0992 -0.248047,-0.0496 -0.496093,-0.19844 -0.198438,-0.0992 -0.446485,-0.0496 -0.347265,-0.39688 -0.79375,-0.64492 -0.396875,-0.24805 -0.396875,-0.84336 -0.04961,-0.59531 0.198438,-1.19063 0.248047,-0.5457 0.09922,-1.14101 0.396875,-0.19844 0.545703,0 0,0.44648 0.04961,0.79375 0.09922,0.29765 0.198438,0.69453 0.04961,0.19844 0.04961,0.39687 0.04961,0.24805 0.09922,0.34727 0.09922,0.29766 0.545703,0.59531 0.496093,0.29766 0.843359,0.34727 0.297656,0.0992 0.79375,0.0496 0.545703,0 0.843359,-0.0992 0.347266,-0.0992 0.694532,-0.34727 0.347265,-0.19843 0.694531,-0.34726 z m 14.138672,-1.48828 q 0.545703,0.19843 0.545703,0.64492 0.04961,0.44648 -0.198438,0.69453 -0.248047,0.19844 -0.595312,0.19844 -0.347266,0 -0.644922,-0.0992 -0.198438,-0.24805 0.04961,-0.44649 0.297656,-0.14882 0.396875,-0.29765 0.198438,-0.19844 0.248047,-0.39688 0.09922,-0.14883 0.198438,-0.29765 z"
         style="font-style:normal;font-variant:normal;font-weight:normal;font-stretch:normal;font-size:50.79999924px;font-family:Frijole;-inkscape-font-specification:'Frijole, Normal';font-variant-ligatures:normal;font-variant-caps:normal;font-variant-numeric:normal;font-feature-settings:normal;text-align:start;writing-mode:lr-tb;text-anchor:start;fill:#005ca9;fill-opacity:1;stroke:#ffffff;stroke-width:2.96499991;stroke-miterlimit:4;stroke-dasharray:none;paint-order:stroke fill markers"
         id="path961" />
    </g>
    <g
       aria-label="U"
       style="font-style:normal;font-variant:normal;font-weight:normal;font-stretch:normal;font-size:50.79999924px;line-height:1.25;font-family:Gruppo;-inkscape-font-specification:Gruppo;letter-spacing:0px;word-spacing:0px;fill:#005ca9;fill-opacity:1;stroke:#ffffff;stroke-width:2.96499991;stroke-miterlimit:4;stroke-dasharray:none;paint-order:stroke fill markers"
       id="text817">
      <path
         d="m 23.875861,251.94482 q -0.595313,0.0496 -0.84336,-0.29766 -0.09922,-0.5457 -0.04961,-1.14101 0.04961,-0.64493 0.148828,-1.24024 0.04961,-0.44648 0.04961,-1.04179 0,-0.64493 0.09922,-1.09141 0.04961,-0.24805 0.09922,-0.59531 0.09922,-0.39688 0.248047,-0.54571 0.248047,-0.39687 0.694531,-0.44648 0.446484,-0.0496 0.744141,-0.39688 0.595312,0.0496 0.74414,-0.0496 0.148828,-0.0992 0.396875,-0.0992 -0.09922,-0.4961 0.297656,-0.29766 0.446485,0.19844 0.79375,0.19844 0.248047,0 0.644922,-0.0496 0.396875,-0.0992 0.595313,0.0992 0.148828,0.0992 0.248047,0.39687 0.09922,0.29766 0.04961,0.4961 -0.496094,0.49609 -0.694531,0.39687 -0.148828,-0.0992 -0.297657,-0.24805 -0.148828,-0.19843 -0.297656,-0.34726 -0.148828,-0.14883 -0.396875,-0.19844 -0.198437,0.19844 -0.297656,0.44648 -0.09922,0.24805 -0.347266,0.39688 -0.644921,-0.0992 -1.141015,0.19844 -0.496094,0.24804 -1.091406,0.34726 -0.248047,0.29766 -0.347266,0.69453 -0.04961,0.34727 -0.04961,0.69454 -0.04961,0.34726 0.04961,0.64492 0.09922,0.24804 0.09922,0.49609 0,0.24805 -0.04961,0.44649 -0.04961,0.19843 -0.04961,0.44648 -0.04961,0.44648 0,0.89297 0.04961,0.39687 -0.04961,0.79375 z m 42.961718,-5.10977 q 0,0.34727 0.04961,0.64492 0.09922,0.29766 0.04961,0.69454 -0.04961,0.5457 -0.148828,1.04179 -0.04961,0.4961 0,1.0418 0,0.24805 -0.09922,0.44648 -0.04961,0.19844 -0.09922,0.44649 0,0.24805 0,0.44648 0.04961,0.19844 -0.09922,0.39688 -0.496094,0 -0.644922,-0.14883 0,-0.89297 0.04961,-1.93477 0.04961,-1.0914 0,-2.08359 -1.041797,-0.24805 -1.339454,-0.94258 -0.545703,0.0992 -1.091406,0.0992 -0.545703,0 -0.942578,0.29766 -0.496094,0.49609 -1.190625,0.69453 -0.694531,0.19844 -1.091406,-0.34727 0,-0.94258 0.892969,-1.04179 0.595312,-0.19844 0.694531,-0.14883 0.09922,0 0.198437,0 0.396875,0.0992 0.694532,0 0.347265,-0.14883 0.644921,0 0.545704,0.0992 0.992188,-0.0496 0.446484,-0.14883 1.041797,-0.0496 0.496094,0.0496 0.892969,0.0992 0.446484,0.0496 0.545703,0.39687 z m -24.60625,-0.44648 q -0.198437,-0.0992 -0.446484,-0.14883 -0.198438,-0.0496 -0.198438,-0.19844 0,-0.34726 0.496094,-0.19843 0.496094,0.0992 0.843359,0.14882 0.496094,0.0496 0.992188,0.0496 0.545703,-0.0496 0.892968,0.34727 0.09922,0.5457 0,1.14101 -0.04961,0.59532 -0.297656,0.99219 0.148828,0.19844 0.04961,0.39688 -0.04961,0.14882 -0.04961,0.34726 -0.148828,0.84336 -0.496094,0.84336 -0.297656,-0.59531 -0.248046,-0.74414 -0.248047,-0.59531 -0.198438,-1.33945 0.04961,-0.79375 -0.04961,-1.33946 -0.297656,-0.0496 -0.595313,-0.0992 -0.248047,-0.0992 -0.694531,-0.19844 z m 1.835547,4.06797 q 0.248047,-0.0992 0.396875,0.0496 0.148828,0.14882 0.248047,0.29765 0.09922,0.59532 -0.297657,0.79375 -0.347265,0 -0.446484,-0.39687 -0.04961,-0.39688 0.09922,-0.74414 z m 21.927343,2.03398 q 0.545703,-0.0992 0.694532,0.4961 0.148828,0.59531 -0.148829,0.99218 -0.248046,0.19844 -0.644921,0 -0.248047,-0.29765 -0.148829,-0.69453 0.148829,-0.44648 0.248047,-0.79375 z m -42.912108,8.53281 q 0.09922,-0.0992 0.198437,-0.14882 0.09922,-0.0992 0.347266,-0.0992 0.297656,0.44648 0.446484,0.99218 0.148828,0.4961 0.04961,1.14102 -0.148828,0.14883 -0.248046,0.44648 -0.09922,0.29766 -0.248047,0.59532 -0.09922,0.24804 -0.297657,0.39687 -0.198437,0.14883 -0.496093,-0.0496 0.148828,-0.84336 0.04961,-1.53789 -0.09922,-0.74414 0.198438,-1.38906 z m 32.593358,10.96368 q -0.297656,0 -0.496093,-0.24805 -0.148828,-0.29766 -0.148828,-0.5457 0.04961,-0.14883 0.198437,-0.44649 0.148828,-0.34726 0.248047,-0.39687 0.248047,-0.0992 0.396875,0.24804 0.148828,0.34727 0.148828,0.64493 -0.04961,0.24804 -0.148828,0.39687 -0.09922,0.0992 -0.198438,0.34727 z m -3.472656,5.10976 q -0.347265,-0.0496 -0.446484,-0.5457 -0.04961,-0.5457 0.198437,-0.84336 0.892969,-0.14883 1.438672,-0.14883 0.595313,-0.0496 0.992188,-0.29766 0.04961,-0.29765 0.198437,-0.64492 0.148828,-0.34726 0.297656,-0.69453 0.04961,-0.69453 0.446485,-1.28984 0.545703,0.5457 0.496094,1.04179 -0.04961,0.4961 -0.148829,1.0418 -0.09922,0.5457 -0.347265,0.99219 -0.198438,0.44648 -0.79375,0.59531 -0.148828,0 -0.297656,0 -0.148829,-0.0496 -0.297657,0 -0.198437,0.0496 -0.396875,0.14883 -0.148828,0.0496 -0.396875,0 -0.198437,0.0496 -0.297656,0.14883 -0.04961,0.0992 -0.148828,0.19844 -0.198438,0.29765 -0.496094,0.29765 z m -18.057812,7.83828 q 0.347266,0.14883 0.694531,0.0992 0.396875,-0.0496 0.79375,0.0496 0.446485,0.5457 0,0.99219 -0.446484,0.44648 -1.091406,0.0496 -0.09922,-0.0992 -0.198437,-0.19844 -0.09922,-0.0992 -0.198438,-0.19844 -0.396875,-0.24804 -1.141016,-0.29765 -0.694531,-0.0496 -1.190625,0.0992 -0.248046,-0.19843 -0.545703,-0.14882 -0.297656,0.0992 -0.595312,0.0496 -0.396875,-0.0496 -0.84336,-0.29766 -0.446484,-0.19844 -0.892968,-0.14883 -0.198438,-0.14883 -0.446485,-0.19844 -0.248047,-0.0496 -0.396875,-0.29765 -0.892968,-0.39688 -1.488281,-0.89297 -0.595312,-0.44649 -1.141015,-0.99219 -0.396875,-0.39687 -0.892969,-0.99219 -0.496094,-0.64492 -0.595313,-1.28984 -0.04961,-0.19844 -0.04961,-0.34726 0.04961,-0.19844 0,-0.34727 -0.09922,-0.29766 -0.09922,-0.5457 0.04961,-0.29766 0.496094,-0.24805 0.148828,0.0992 0.148828,0.24805 0,0.14882 0.09922,0.29765 0.04961,0.0992 0.148828,0.19844 0.09922,0.0992 0.198437,0.24805 0.198438,0.64492 0.496094,0.94258 0.347266,0.29765 0.595313,0.59531 0.148828,0.19844 0.248047,0.39687 0.148828,0.19844 0.297656,0.34727 0.248047,0.19844 0.496093,0.34726 0.248047,0.14883 0.446485,0.24805 0.09922,0.19844 0.198437,0.29766 0.148828,0.0992 0.248047,0.24804 0.248047,0.0992 0.496094,0.29766 0.248047,0.24805 0.496094,0.34727 0.248047,0.14882 0.496093,0.19843 0.297657,0.0992 0.496094,0.34727 0.942578,0.19844 1.984375,0.44648 1.091406,0.24805 2.232422,0.0496 z m 29.467968,-36.66133 q 0.496094,0.0992 0.892969,0.0496 0.446484,-0.0992 0.496094,0.14883 -0.347266,1.78594 -0.446485,3.07578 -0.09922,1.28985 0,2.57969 0.04961,0.39688 0,0.84336 -0.04961,0.39688 -0.09922,0.79375 -0.04961,0.5457 0,1.0418 0.04961,0.49609 0,0.99218 -0.198438,0.0992 -0.347266,0.29766 -0.09922,0.14883 -0.248047,0.39688 -0.248047,0.39687 -0.347265,0.69453 -0.04961,0.29765 0.04961,0.89297 0,0.29765 0.09922,0.64492 0.148828,0.29765 0.248047,0.64492 0.09922,0.19844 0.148828,0.34727 0.09922,0.14882 0.148828,0.39687 0.04961,0.94258 -0.09922,2.03398 0,0.24805 0,0.54571 0.04961,0.29765 0.04961,0.59531 -0.04961,0.39688 -0.09922,0.84336 -0.04961,0.39687 0,0.79375 0.09922,0.74414 0.04961,1.24023 0,0.4961 0.04961,1.0418 0.04961,0.89297 -0.04961,1.63711 -0.09922,0.74414 -0.148828,1.48828 0,0.5457 0.04961,1.14102 0.09922,0.59531 0,1.14101 -0.248047,0.59532 -0.248047,0.99219 0,0.34727 0,0.69453 0,0.34727 0.04961,0.69453 0.09922,0.29766 0.04961,0.59532 -0.198437,0.39687 -0.198437,0.5457 0,0.14883 -0.04961,0.24805 -0.148828,0.5457 -0.496093,0.99218 -0.347266,0.44649 -0.545704,1.09141 -0.446484,0.44648 -0.942578,0.94258 -0.446484,0.44648 -0.892968,0.94258 -0.496094,0.19843 -1.091407,0.59531 -0.595312,0.39687 -1.141015,0.64492 -0.446485,0.19844 -1.141016,0.0496 -0.694531,-0.0992 -1.289844,0 -0.198437,0.0496 -0.446484,0.0496 -0.198437,0 -0.347266,0.0992 -0.248046,0.0992 -0.347265,0.19843 -0.09922,0.0992 -0.248047,0.19844 -0.198438,0.14883 -0.496094,0.19844 -0.297656,0.0496 -0.595312,0.0992 -0.644922,0.14883 -1.190625,0.19844 -0.496094,0.0992 -1.141016,0.0992 -0.248047,0 -0.545703,0 -0.248047,0.0496 -0.496094,0.0496 -1.141015,-0.0496 -2.282031,-0.0496 -1.141016,0.0496 -2.232422,-0.0496 -0.496094,0 -0.992187,0.0496 -0.496094,0.0496 -0.992188,0 -0.297656,0 -0.595312,-0.0496 -0.248047,-0.0496 -0.496094,-0.0496 -0.297656,-0.0496 -0.545703,0 -0.198438,0.0496 -0.446484,0.0496 -0.396875,0.0496 -0.892969,-0.0992 -0.446485,-0.14883 -0.992188,-0.14883 -0.248047,0 -0.396875,0.0496 -0.148828,0.0496 -0.396875,-0.0496 -0.446484,-0.0992 -0.892968,-0.19844 -0.446485,-0.0992 -0.892969,-0.19844 -0.248047,-0.0496 -0.545703,-0.0496 -0.248047,0.0496 -0.545703,0.0496 -0.644922,-0.19843 -0.892969,-0.19843 -0.198438,0.0496 -0.446484,-0.0496 -0.148829,0 -0.297657,-0.0992 -0.09922,-0.0496 -0.248047,-0.0992 -0.248046,-0.0496 -0.396875,0 -0.148828,0.0496 -0.347265,0.0496 -0.347266,0 -0.744141,-0.0992 -0.396875,-0.0496 -0.843359,-0.0992 -0.198438,-0.0496 -0.396875,0 -0.148828,0.0496 -0.297656,0 -0.446485,-0.0992 -0.84336,-0.34727 -0.396875,-0.24804 -0.892969,-0.29765 -0.248046,-0.49609 -0.545703,-0.99219 -0.248047,-0.49609 -1.041797,-0.39687 -0.74414,-0.79375 -1.53789,-1.68672 -0.744141,-0.94258 -1.240234,-2.0836 -0.09922,-0.19843 -0.148829,-0.39687 -0.04961,-0.19844 -0.148828,-0.44649 -0.248047,-0.64492 -0.396875,-1.6371 -0.04961,-0.19844 -0.09922,-0.39688 0,-0.19844 -0.04961,-0.39687 0,-0.19844 0.04961,-0.39688 0.04961,-0.19844 0.04961,-0.39687 -0.148828,-0.64493 -0.09922,-0.79375 0.04961,-0.14883 0.04961,-0.24805 -0.09922,-0.59531 -0.09922,-0.79375 0.04961,-0.19844 0.04961,-0.39688 -0.09922,-0.74414 -0.09922,-1.14101 0.04961,-0.44649 0.04961,-0.84336 0,-0.34727 0,-0.74414 0,-0.39688 0.09922,-0.59531 0.09922,-0.14883 0.198437,-0.19844 0.09922,-0.0496 0.198438,-0.24805 -0.04961,-0.29766 -0.198438,-0.49609 -0.148828,-0.19844 -0.248047,-0.44649 0.04961,-0.64492 0,-0.84336 0,-0.24804 0.04961,-0.49609 0.04961,-0.19844 0.148828,-0.34727 0.09922,-0.19843 0.198437,-0.39687 0.09922,-0.29766 0.148828,-0.5457 0.09922,-0.24805 0.347266,-0.34727 0.04961,-0.34727 0.248047,-0.5457 0.198437,-0.19844 0.297656,-0.4961 0.04961,-0.44648 -0.09922,-0.84336 -0.148828,-0.39687 -0.297656,-0.79375 -0.396875,-0.29765 -0.545703,-0.49609 -0.04961,-0.39687 -0.09922,-0.89297 0,-0.49609 0.04961,-1.0418 0.09922,-0.5457 0.04961,-0.64492 0,-0.14883 0,-0.24804 0.04961,-0.69454 0.09922,-1.28985 0.04961,-0.64492 0,-1.33945 0,-0.79375 0.04961,-1.63711 0.04961,-0.89297 0.09922,-1.68672 0,-0.99219 0,-1.93476 0,-0.94258 0.198437,-1.88516 0.198438,-0.24805 0.446485,-0.29766 0.297656,-0.0992 0.595312,-0.24804 0.396875,-0.29766 0.545703,-0.34727 0.297656,-0.0992 0.595313,-0.0496 0.347265,0 0.644922,-0.14883 0.446484,0.0992 0.942578,0.0496 0.545703,-0.0496 1.041797,-0.0992 0.347265,0 0.644921,0.0992 0.347266,0.0496 0.595313,-0.0496 0.545703,0.39688 0.694531,0.44649 0.198438,0 0.347266,0.0496 0.248047,0.19843 0.545703,0.24804 0.248047,0.0992 0.496094,0.0992 0.248047,-0.0496 0.496093,-0.0992 0.644922,0 1.289844,-0.24804 0.595313,-0.14883 0.744141,-0.0992 0.198437,0 0.446484,0.0496 0.198438,0 0.396875,0.0496 0.198438,0 0.446484,0 0.09922,0 0.248047,-0.0496 0.198438,-0.0496 0.347266,-0.0496 0.694531,0 1.389062,0.0496 0.744141,0 1.488282,0 0.297656,0 0.694531,0 0.396875,-0.0496 0.644922,0.0496 0.198437,0.0992 0.396875,0.39687 0.248047,0.29766 0.347265,0.5457 0.04961,0.24805 0,0.4961 0,0.24805 0.04961,0.49609 0,0.24805 0.04961,0.44649 0.04961,0.19843 0.09922,0.44648 0.04961,0.99219 -0.04961,2.23242 -0.04961,1.19063 -0.09922,1.98438 -0.396875,0.69453 -0.595313,1.0914 -0.09922,0.0992 -0.198437,0.19844 -0.04961,0.0992 -0.04961,0.34727 0,0.59531 0.297657,1.19062 0.297656,0.59531 0.248047,1.24024 -0.198438,0.99218 -0.198438,1.48828 0.04961,0.49609 0.04961,0.94258 -0.04961,0.64492 -0.04961,1.38906 0.04961,0.69453 0,1.38906 -0.04961,0.5457 -0.148828,1.14102 -0.09922,0.5457 0,1.14101 -0.148828,0.39688 -0.148828,0.84336 0.04961,0.44649 0,0.99219 -0.04961,0.49609 -0.04961,0.94258 0,0.44648 0,0.94258 0,0.14882 0.04961,0.29765 0.04961,0.14883 0.04961,0.24805 -0.198437,0.79375 -0.09922,1.43867 0.148829,0.64492 0,1.0418 -0.09922,0.19843 -0.198437,0.34726 -0.09922,0.14883 -0.198438,0.34727 -0.09922,0.19844 -0.148828,0.34726 -0.04961,0.14883 0.04961,0.44649 0.148828,0.14883 0.347265,0.19844 0.248047,0.0496 0.347266,0.19843 0.09922,0.74414 0.396875,1.28985 0.347266,0.5457 0.744141,0.94258 0.644921,-0.0496 1.041796,0.39687 0.744141,-0.14883 1.5875,-0.0496 0.248047,0 0.396875,0 0.198438,-0.0496 0.396875,-0.0496 0.248047,-0.0496 0.446485,0 0.198437,0 0.446484,0 h 2.678906 q 0.644922,0.0992 0.942578,0.44649 0.297657,0.34726 0.545703,0.44648 0.595313,0.0496 0.892969,-0.19844 0.347266,-0.24804 0.79375,-0.34726 0.595313,-0.24805 1.091406,-0.14883 0.545704,0.0496 1.190625,-0.24805 0.347266,-0.14883 0.644922,-0.49609 0.347266,-0.34727 0.496094,-0.84336 0.04961,-0.19844 0.04961,-0.39688 0.04961,-0.19843 0.09922,-0.39687 0.09922,-0.64492 0.09922,-1.33945 0.04961,-0.74414 -0.04961,-1.43868 -0.04961,-0.39687 0,-0.74414 0.04961,-0.39687 0,-0.74414 0,-0.24804 -0.09922,-0.49609 -0.09922,-0.29766 0,-0.69453 0.347265,-0.54571 0.396875,-0.74414 0.04961,-0.19844 0.198437,-0.39688 0.09922,-0.24804 0.198438,-0.39687 0.148828,-0.14883 0.148828,-0.39688 0.04961,-0.44648 -0.198438,-0.99219 -0.248046,-0.5457 -0.198437,-1.04179 -0.04961,-0.34727 -0.297656,-0.64492 -0.248047,-0.29766 -0.297657,-0.69454 -0.04961,-0.29765 0,-0.74414 0.04961,-0.44648 0.09922,-0.89296 0.04961,-0.79375 0.04961,-1.73633 0.04961,-0.94258 0.595312,-1.33946 -0.09922,-0.24804 0.04961,-0.34726 0.148829,-0.14883 0.198438,-0.34727 0.09922,-0.24804 0.04961,-0.44648 -0.04961,-0.19844 0.148828,-0.34727 -0.04961,-0.69453 -0.148828,-1.19062 -0.09922,-0.4961 -0.148828,-1.0418 -0.09922,-0.24805 -0.248047,-0.59531 -0.148828,-0.34727 -0.347265,-0.64492 -0.198438,-0.4961 -0.148828,-0.59532 0.04961,-0.14882 0.04961,-0.29765 0,-0.19844 -0.04961,-0.39688 -0.04961,-0.19843 -0.04961,-0.44648 0,-0.5457 0.04961,-1.09141 0.04961,-0.5457 0.04961,-0.99219 0,-0.24804 -0.04961,-0.44648 -0.04961,-0.24805 0.04961,-0.49609 0.09922,-0.39688 0.496094,-0.74414 0.396875,-0.39688 0.694531,-0.44649 0.545703,0.0496 0.694531,0 0.148828,-0.0496 0.248047,-0.0496 0.297656,0.0992 0.446484,0.34727 0.148829,0.24804 0.396875,0.34726 0.248047,-0.0496 0.496094,-0.14882 0.297656,-0.0992 0.644922,0 0.446484,-0.19844 0.843359,-0.39688 0.396875,-0.24805 0.79375,-0.44648 0.198438,-0.0496 0.396875,0 0.198438,0.0496 0.396875,0.0992 z m -36.710937,4.96094 q -0.148828,0.29766 -0.09922,0.59531 0.04961,0.24805 0.148828,0.4961 0.396875,0.0496 0.595312,-0.19844 0.248047,-0.29766 0.297656,-0.64492 0,-0.24805 -0.347265,-0.49609 -0.297656,-0.24805 -0.396875,0.14882 z m 0.396875,6.79649 q 0.496094,0.0992 0.694532,-0.39688 0.248046,-0.5457 0.198437,-1.0418 0,-0.19843 -0.09922,-0.29765 -0.04961,-0.14883 -0.148828,-0.39688 -0.09922,-0.19843 -0.04961,-0.39687 0.04961,-0.19844 0.04961,-0.4961 0,-0.39687 -0.148828,-0.79375 -0.09922,-0.39687 -0.297656,-0.5457 -0.446485,0.34727 -0.644922,0.79375 -0.198437,0.44649 -0.347266,0.99219 0.04961,0.64492 -0.04961,0.94258 -0.09922,0.29765 -0.148828,0.84336 0.198437,0.24804 0.396875,0.49609 0.248047,0.24805 0.595312,0.29766 z m 10.666016,-10.51719 q -0.198438,0.44648 -0.04961,0.74414 0.148829,0.29766 0.446485,0.5457 0.297656,0.24805 0.595312,0.4961 0.347266,0.24804 0.446485,0.5457 0,0.24805 -0.09922,0.59531 -0.04961,0.29766 0,0.64492 0,0.24805 0.148828,0.4961 0.148828,0.19844 0.347266,0.19844 0.248047,0 0.347265,-0.19844 0.09922,-0.19844 0.396875,-0.19844 0.148828,-0.34727 0.09922,-0.64492 -0.04961,-0.29766 0,-0.69453 0.09922,-0.39688 0.148828,-0.99219 0.04961,-0.59531 -0.09922,-0.99219 -0.09922,-0.19844 -0.347265,-0.39687 -0.198438,-0.24805 -0.396875,-0.14883 -0.446485,0.0992 -0.942578,0.0496 -0.496094,-0.0992 -1.041797,-0.0496 z m 3.621484,29.07109 q 0.248047,-0.49609 0.04961,-0.84336 -0.148829,-0.34726 -0.347266,-0.74414 -0.04961,-0.14883 -0.09922,-0.34726 -0.04961,-0.19844 -0.148828,-0.29766 -0.198437,-0.24805 -0.545703,-0.34726 -0.297656,-0.14883 -0.545703,-0.34727 -0.496094,-0.39688 -0.496094,-1.24023 0,-0.89297 -0.04961,-1.5875 -0.396875,0 -0.496094,0.0992 -0.09922,0.0496 -0.148828,0.14883 -0.446485,0.74414 -0.198438,1.5875 0.297657,0.84336 0.496094,1.53789 0.09922,0.29766 0.297656,0.64492 0.248047,0.29766 0.396875,0.54571 0.297657,0.49609 0.744141,0.94258 0.446484,0.44648 1.091406,0.24804 z m 20.885547,-1.14101 q 0.09922,-0.34727 -0.198438,-0.64492 -0.248047,-0.34727 -0.595312,-0.24805 -0.198438,0 -0.297657,0.0992 -0.09922,0.0496 -0.198437,0.14883 -0.09922,0.19843 -0.148828,0.39687 -0.04961,0.19844 -0.148828,0.39688 -0.148828,0.5457 -0.446485,0.89296 -0.297656,0.29766 -0.545703,0.69454 -0.396875,0.14882 -0.843359,0.44648 -0.446484,0.24805 -0.496094,0.79375 0,0.24805 0.148828,0.49609 0.198438,0.24805 0.347266,0.29766 0.198437,0.0496 0.644922,-0.19844 0.496093,-0.29765 0.694531,-0.49609 0.09922,-0.0992 0.248047,-0.24805 0.148828,-0.19844 0.248047,-0.34726 0.347265,-0.44649 0.595312,-0.84336 0.297656,-0.39688 0.595313,-0.94258 0.09922,-0.14883 0.198437,-0.34727 0.09922,-0.19843 0.198438,-0.34726 z"
         style="font-style:normal;font-variant:normal;font-weight:normal;font-stretch:normal;font-size:50.79999924px;font-family:Frijole;-inkscape-font-specification:'Frijole, Normal';font-variant-ligatures:normal;font-variant-caps:normal;font-variant-numeric:normal;font-feature-settings:normal;text-align:start;writing-mode:lr-tb;text-anchor:start;fill:#005ca9;fill-opacity:1;stroke:#ffffff;stroke-width:2.96499991;stroke-miterlimit:4;stroke-dasharray:none;paint-order:stroke fill markers"
         id="path958" />
    </g>
  </g>
</svg>
